<?xml version="1.0" encoding="UTF-8" standalone="no"?>
<svg
   version="1.1"
   width="34.833401"
   height="34.833401"
   viewBox="0 0 34.833401 34.833401"
   enable-background="new 0 0 76.00 76.00"
   xml:space="preserve"
   id="svg4"
   sodipodi:docname="clock.svg"
   inkscape:version="1.1.2 (b8e25be833, 2022-02-05)"
   xmlns:inkscape="http://www.inkscape.org/namespaces/inkscape"
   xmlns:sodipodi="http://sodipodi.sourceforge.net/DTD/sodipodi-0.dtd"
   xmlns="http://www.w3.org/2000/svg"
   xmlns:svg="http://www.w3.org/2000/svg"><defs
   id="defs8" /><sodipodi:namedview
   id="namedview6"
   pagecolor="#ffffff"
   bordercolor="#666666"
   borderopacity="1.0"
   inkscape:pageshadow="2"
   inkscape:pageopacity="0.0"
   inkscape:pagecheckerboard="0"
   showgrid="false"
   fit-margin-top="0"
   fit-margin-left="0"
   fit-margin-right="0"
   fit-margin-bottom="0"
   inkscape:zoom="10.828947"
   inkscape:cx="-23.086271"
   inkscape:cy="17.453221"
   inkscape:window-width="1920"
   inkscape:window-height="1009"
   inkscape:window-x="1014"
   inkscape:window-y="-1088"
   inkscape:window-maximized="1"
   inkscape:current-layer="svg4" />
	<path
   fill="#000000"
   fill-opacity="1"
   stroke-width="0.2"
   stroke-linejoin="round"
   d="M 17.4167,3.1667 C 26.1612,3.1667 33.25,10.2555 33.25,19 33.25,27.7445 26.1612,34.8334 17.4167,34.8334 8.6722,34.8334 1.5834,27.7445 1.5834,19 1.5834,10.2555 8.6722,3.1667 17.4167,3.1667 Z m 0,3.9583 c -6.5584,0 -11.875,5.3167 -11.875,11.875 0,6.5584 5.3166,11.875 11.875,11.875 6.5584,0 11.875,-5.3166 11.875,-11.875 0,-6.5583 -5.3166,-11.875 -11.875,-11.875 z m -0.3958,3.1667 c 0.8744,0 1.5833,0.7089 1.5833,1.5833 v 5.9376 h 5.9375 c 0.8744,0 1.5833,0.7088 1.5833,1.5833 v 0.7916 c 0,0.8745 -0.7089,1.5834 -1.5833,1.5834 h -7.125 C 16.625,21.6389 15.8334,21.507 15.3715,21.0452 14.9097,20.5834 14.7778,19.7917 14.6459,19 v -7.125 c 0,-0.8744 0.7088,-1.5833 1.5833,-1.5833 z M 28.5,0 c 3.4978,0 6.3334,2.8356 6.3334,6.3334 0,1.5089 -0.5277,2.8946 -1.4087,3.9826 C 31.3596,6.5173 27.9818,3.5356 23.9002,1.9799 25.0546,0.7606 26.6885,0 28.5,0 Z M 6.3334,10e-5 c 1.8115,0 3.4454,0.7605 4.5998,1.9798 C 6.8516,3.5356 3.4738,6.5173 1.4087,10.316 0.5277,9.228 0,7.8423 0,6.3334 0,2.8356 2.8356,10e-5 6.3334,10e-5 Z"
   id="path2"
   style="fill:#00b7ff;fill-opacity:1" />
<path
   style="fill:#000000;stroke-width:0.0923451"
   d="M 15.375456,30.647992 C 11.695789,29.98793 8.532183,27.619025 6.842588,24.258588 5.9967395,22.576278 5.6278996,20.970877 5.6277608,18.970969 5.6275446,15.856055 6.7788844,13.00109 8.927319,10.78909 c 2.259529,-2.3263814 5.202876,-3.5761213 8.433556,-3.5808723 1.498163,-0.0022 2.314867,0.1163741 3.601459,0.5228959 1.806831,0.5709007 3.391613,1.5323687 4.761216,2.8885704 2.29446,2.27201 3.479457,5.110992 3.488329,8.35723 0.0052,1.899282 -0.311438,3.360708 -1.096046,5.058887 -0.724057,1.567127 -2.17406,3.333271 -3.649623,4.44534 -1.391504,1.048719 -3.386551,1.899265 -5.110953,2.178949 -1.04467,0.169437 -3.000945,0.16349 -3.979801,-0.0121 z m 9.577935,-8.904789 c 0.408961,-0.11358 0.857987,-0.471684 1.045067,-0.833456 0.09068,-0.175365 0.1347,-0.544208 0.133681,-1.120227 -0.0019,-1.066382 -0.194033,-1.486112 -0.826448,-1.805315 -0.402658,-0.203237 -0.479752,-0.207777 -3.528409,-0.207777 h -3.116758 l -0.02649,-3.215907 -0.0265,-3.215906 -0.245708,-0.371119 c -0.35739,-0.539804 -0.788053,-0.717393 -1.739711,-0.717393 -0.951824,0 -1.382427,0.17763 -1.739711,0.717655 l -0.245708,0.371382 v 4.069836 c 0,3.591951 0.01869,4.130155 0.159158,4.583536 0.316386,1.021164 0.801362,1.446796 1.929835,1.693689 0.732521,0.160264 7.679238,0.203326 8.227702,0.051 z"
   id="path138" /></svg>
